<?xml version="1.0" encoding="UTF-8" standalone="no"?>
<!-- Created with Inkscape (http://www.inkscape.org/) -->

<svg
   xmlns:dc="http://purl.org/dc/elements/1.1/"
   xmlns:cc="http://creativecommons.org/ns#"
   xmlns:rdf="http://www.w3.org/1999/02/22-rdf-syntax-ns#"
   xmlns:svg="http://www.w3.org/2000/svg"
   xmlns="http://www.w3.org/2000/svg"
   xmlns:sodipodi="http://sodipodi.sourceforge.net/DTD/sodipodi-0.dtd"
   xmlns:inkscape="http://www.inkscape.org/namespaces/inkscape"
   width="744.09448819"
   height="1052.3622047"
   id="svg2"
   version="1.1"
   inkscape:version="0.92.3 (2405546, 2018-03-11)"
   sodipodi:docname="Perimeters.svg">
  <defs
     id="defs4">
    <marker
       inkscape:stockid="Arrow1Send"
       orient="auto"
       refY="0.0"
       refX="0.0"
       id="Arrow1Send"
       style="overflow:visible;">
      <path
         id="path3908"
         d="M 0.0,0.0 L 5.0,-5.0 L -12.5,0.0 L 5.0,5.0 L 0.0,0.0 z "
         style="fill-rule:evenodd;stroke:#000000;stroke-width:1.0pt;"
         transform="scale(0.2) rotate(180) translate(6,0)" />
    </marker>
    <marker
       inkscape:stockid="Arrow1Lend"
       orient="auto"
       refY="0.0"
       refX="0.0"
       id="Arrow1Lend"
       style="overflow:visible;">
      <path
         id="path3798"
         d="M 0.0,0.0 L 5.0,-5.0 L -12.5,0.0 L 5.0,5.0 L 0.0,0.0 z "
         style="fill-rule:evenodd;stroke:#000000;stroke-width:1.0pt;"
         transform="scale(0.8) rotate(180) translate(12.5,0)" />
    </marker>
    <marker
       inkscape:stockid="Arrow1Lstart"
       orient="auto"
       refY="0.0"
       refX="0.0"
       id="Arrow1Lstart"
       style="overflow:visible">
      <path
         id="path3795"
         d="M 0.0,0.0 L 5.0,-5.0 L -12.5,0.0 L 5.0,5.0 L 0.0,0.0 z "
         style="fill-rule:evenodd;stroke:#000000;stroke-width:1.0pt"
         transform="scale(0.8) translate(12.5,0)" />
    </marker>
    <marker
       inkscape:stockid="Arrow1Lend"
       orient="auto"
       refY="0"
       refX="0"
       id="Arrow1Lend-4"
       style="overflow:visible">
      <path
         inkscape:connector-curvature="0"
         id="path3798-5"
         d="M 0,0 5,-5 -12.5,0 5,5 0,0 z"
         style="fill-rule:evenodd;stroke:#000000;stroke-width:1pt"
         transform="matrix(-0.8,0,0,-0.8,-10,0)" />
    </marker>
  </defs>
  <sodipodi:namedview
     id="base"
     pagecolor="#ffffff"
     bordercolor="#666666"
     borderopacity="1.0"
     inkscape:pageopacity="0.0"
     inkscape:pageshadow="2"
     inkscape:zoom="1"
     inkscape:cx="242.94694"
     inkscape:cy="710.20142"
     inkscape:document-units="px"
     inkscape:current-layer="layer1"
     showgrid="false"
     inkscape:window-width="1920"
     inkscape:window-height="1019"
     inkscape:window-x="0"
     inkscape:window-y="0"
     inkscape:window-maximized="1" />
  <metadata
     id="metadata7">
    <rdf:RDF>
      <cc:Work
         rdf:about="">
        <dc:format>image/svg+xml</dc:format>
        <dc:type
           rdf:resource="http://purl.org/dc/dcmitype/StillImage" />
        <dc:title></dc:title>
      </cc:Work>
    </rdf:RDF>
  </metadata>
  <g
     inkscape:label="Layer 1"
     inkscape:groupmode="layer"
     id="layer1">
    <path
       style="fill:none;stroke:#000000;stroke-width:1px;stroke-linecap:butt;stroke-linejoin:miter;stroke-opacity:1"
       d="m 594,152.36218 91,51"
       id="path4461"
       inkscape:connector-curvature="0" />
    <path
       style="fill:none;stroke:#000000;stroke-width:1px;stroke-linecap:butt;stroke-linejoin:miter;stroke-opacity:1"
       d="m 276,465.36218 74,-44 -80,-55"
       id="path4455"
       inkscape:connector-curvature="0" />
    <path
       style="fill:none;stroke:#000000;stroke-width:1px;stroke-linecap:butt;stroke-linejoin:miter;stroke-opacity:1"
       d="m 351,325.36218 -1,97 71,-50"
       id="path4457"
       inkscape:connector-curvature="0" />
    <path
       style="fill:none;stroke:#000000;stroke-width:1px;stroke-linecap:butt;stroke-linejoin:miter;stroke-opacity:1"
       d="m 359,516.36218 -11,-98 86,46"
       id="path4459"
       inkscape:connector-curvature="0" />
    <path
       style="fill:none;stroke:#000000;stroke-width:1px;stroke-linecap:butt;stroke-linejoin:miter;stroke-opacity:1"
       d="m 108,556.36218 81,61"
       id="path4362"
       inkscape:connector-curvature="0" />
    <path
       style="fill:none;stroke:#000000;stroke-width:1px;stroke-linecap:butt;stroke-linejoin:miter;stroke-opacity:1"
       d="m 185,224.36218 84,-47"
       id="path4358"
       inkscape:connector-curvature="0" />
    <path
       style="fill:none;stroke:#000000;stroke-width:1px;stroke-linecap:butt;stroke-linejoin:miter;stroke-opacity:1"
       d="m 496,110.36218 97,-50.999997 -80,-44 z"
       id="path4395"
       inkscape:connector-curvature="0" />
    <path
       style="fill:none;stroke:#000000;stroke-width:1px;stroke-linecap:butt;stroke-linejoin:miter;stroke-opacity:1"
       d="M 286,-46.637817 206,1.3621826 274,69.362183"
       id="path4405"
       inkscape:connector-curvature="0" />
    <path
       style="fill:none;stroke:#000000;stroke-width:1px;stroke-linecap:butt;stroke-linejoin:miter;stroke-opacity:1"
       d="m 272,68.362183 87,-58 -74,-59 z"
       id="path4401"
       inkscape:connector-curvature="0" />
    <path
       style="fill:none;stroke:#000000;stroke-width:1px;stroke-linecap:butt;stroke-linejoin:miter;stroke-opacity:1"
       d="m 105,270.36218 2,105 -1,90"
       id="path4360"
       inkscape:connector-curvature="0" />
    <path
       style="fill:none;stroke:#000000;stroke-width:1px;stroke-linecap:butt;stroke-linejoin:miter;stroke-opacity:1"
       d="m 26,435.36218 -4,84 85,-55"
       id="path4415"
       inkscape:connector-curvature="0" />
    <path
       style="fill:none;stroke:#000000;stroke-width:1px;stroke-linecap:butt;stroke-linejoin:miter;stroke-opacity:1"
       d="m 42,223.36218 -13,106 0,105"
       id="path4083"
       inkscape:connector-curvature="0" />
    <path
       style="fill:none;stroke:#000000;stroke-width:1px;stroke-linecap:butt;stroke-linejoin:miter;stroke-opacity:1"
       d="m 41,219.36218 -77,-64"
       id="path4413"
       inkscape:connector-curvature="0" />
    <path
       style="fill:none;stroke:#000000;stroke-width:1px;stroke-linecap:butt;stroke-linejoin:miter;stroke-opacity:1"
       d="m 184,221.36218 -77,56 2,-126"
       id="path4081"
       inkscape:connector-curvature="0" />
    <path
       style="fill:none;stroke:#000000;stroke-width:1px;stroke-linecap:butt;stroke-linejoin:miter;stroke-opacity:1"
       d="m 193,112.36218 -85,40"
       id="path4085"
       inkscape:connector-curvature="0" />
    <path
       style="fill:none;stroke:#000000;stroke-width:1px;stroke-linecap:butt;stroke-linejoin:miter;stroke-opacity:1"
       d="m 189,114.36218 81,60"
       id="path4053"
       inkscape:connector-curvature="0" />
    <path
       style="fill:none;stroke:#000000;stroke-width:1px;stroke-linecap:butt;stroke-linejoin:miter;stroke-opacity:1"
       d="m 41,220.36218 69,55 -81,53 80,48 -80,59 78,31 2,93 1,99 83,52 84,44 87,-41 86,64 2,-113 98,52 -14,-112 85,52 -16,-97 97,33 -11,-88 -88,-60 85,-62 -93,-35 7,-87 -79,-41 70,-67 -96,-41 -66,-50.999997 -8,119.999997 -72,-57 -82,53 7,-108.999997 -84,43.999997 -8,114 -74,-73 z"
       id="path4051"
       inkscape:connector-curvature="0" />
    <path
       style="fill:none;stroke:#000000;stroke-width:1px;stroke-linecap:butt;stroke-linejoin:miter;stroke-opacity:1"
       d="M 189,117.36218 207,0.36218262 121,39.362183 z"
       id="path4407"
       inkscape:connector-curvature="0" />
    <path
       style="fill:none;stroke:#000000;stroke-width:1px;stroke-linecap:butt;stroke-linejoin:miter;stroke-opacity:1"
       d="m 107,149.36218 14,-110.999997 -84,46 z"
       id="path4409"
       inkscape:connector-curvature="0" />
    <path
       style="fill:none;stroke:#000000;stroke-width:1px;stroke-linecap:butt;stroke-linejoin:miter;stroke-opacity:1"
       d="m 112,762.36218 78,47 81,53"
       id="path4427"
       inkscape:connector-curvature="0" />
    <path
       style="fill:none;stroke:#000000;stroke-width:1px;stroke-linecap:butt;stroke-linejoin:miter;stroke-opacity:1"
       d="m 24,709.36218 83,-55 5,108 z"
       id="path4421"
       inkscape:connector-curvature="0" />
    <path
       style="fill:none;stroke:#000000;stroke-width:1px;stroke-linecap:butt;stroke-linejoin:miter;stroke-opacity:1"
       d="m 108,656.36218 -84,-42 1,97 -80,-59"
       id="path4419"
       inkscape:connector-curvature="0" />
    <path
       style="fill:none;stroke:#000000;stroke-width:1px;stroke-linecap:butt;stroke-linejoin:miter;stroke-opacity:1"
       d="m -35,156.36218 72,-73.999997 4,135.999997 -86,54 76,56 -74,42 70,64 -79,27 73,57 -78,41 81,55 -80,40 -2,-95 8,-100 7,-88 0,-99 z"
       id="path4411"
       inkscape:connector-curvature="0" />
    <path
       style="fill:none;stroke:#000000;stroke-width:1px;stroke-linecap:butt;stroke-linejoin:miter;stroke-opacity:1"
       d="m 108,557.36218 -86,-39 1,98 z"
       id="path4417"
       inkscape:connector-curvature="0" />
    <path
       style="fill:none;stroke:#000000;stroke-width:1px;stroke-linecap:butt;stroke-linejoin:miter;stroke-opacity:1"
       d="m 274,754.36218 8,-95 -87,50 -5,-94 93,44"
       id="path4069"
       inkscape:connector-curvature="0" />
    <path
       style="fill:none;stroke:#000000;stroke-width:1px;stroke-linecap:butt;stroke-linejoin:miter;stroke-opacity:1"
       d="m 369,711.36218 0,111 -96,-72"
       id="path4425"
       inkscape:connector-curvature="0" />
    <path
       style="fill:none;stroke:#000000;stroke-width:1px;stroke-linecap:butt;stroke-linejoin:miter;stroke-opacity:1"
       d="m 447,882.36218 86,-54 86,-56 73,-65 71,-48"
       id="path4431"
       inkscape:connector-curvature="0" />
    <path
       style="fill:none;stroke:#000000;stroke-width:1px;stroke-linecap:butt;stroke-linejoin:miter;stroke-opacity:1"
       d="m 689,383.36218 2,122 -88,56"
       id="path4067"
       inkscape:connector-curvature="0" />
    <path
       style="fill:none;stroke:#000000;stroke-width:1px;stroke-linecap:butt;stroke-linejoin:miter;stroke-opacity:1"
       d="m 113,764.36218 81,-55 -7,98 87,-55 -3,110 97,-43 79,60 4,-108 83,62 17,-118 71,56 -1,-120 69,55 12,-111 60,68 10,-117 -79,-44"
       id="path4423"
       inkscape:connector-curvature="0" />
    <path
       style="fill:none;stroke:#000000;stroke-width:1px;stroke-linecap:butt;stroke-linejoin:miter;stroke-opacity:1"
       d="m 367,823.36218 85,-49 94,-57 71,-65 81,-55 69,-52"
       id="path4429"
       inkscape:connector-curvature="0" />
    <path
       style="fill:none;stroke:#000000;stroke-width:1px;stroke-linecap:butt;stroke-linejoin:miter;stroke-opacity:1"
       d="m 691,382.36218 70,69 10,92"
       id="path4433"
       inkscape:connector-curvature="0" />
    <path
       style="fill:none;stroke:#000000;stroke-width:1px;stroke-linecap:butt;stroke-linejoin:miter;stroke-opacity:1"
       d="m 693,502.36218 68,-55 5,-113 -1,-88"
       id="path4366"
       inkscape:connector-curvature="0" />
    <path
       style="fill:none;stroke:#000000;stroke-width:1px;stroke-linecap:butt;stroke-linejoin:miter;stroke-opacity:1"
       d="m 281,660.36218 84,55 90,-51 85,-59 62,-50 -2,-110 -8,-98 97,-54 1,89 75,-48 -78,-41 77,-48 -77,-47 -85,59 -8,-104 90,-50 6,97"
       id="path4364"
       inkscape:connector-curvature="0" />
    <path
       style="fill:none;stroke:#000000;stroke-width:1px;stroke-linecap:butt;stroke-linejoin:miter;stroke-opacity:1"
       d="m 688,200.36218 -1,93 -86,-35"
       id="path4368"
       inkscape:connector-curvature="0" />
    <path
       style="fill:none;stroke:#000000;stroke-width:1px;stroke-linecap:butt;stroke-linejoin:miter;stroke-opacity:1"
       d="m 591,151.36218 4,-92.999997 89,42.999997 -8,-85.999997 -83,44 4,-106 79,61"
       id="path4393"
       inkscape:connector-curvature="0" />
    <path
       style="fill:none;stroke:#000000;stroke-width:1px;stroke-linecap:butt;stroke-linejoin:miter;stroke-opacity:1"
       d="m 358,8.3621826 87,-47.9999996 151,-7 -82,61"
       id="path4435"
       inkscape:connector-curvature="0" />
    <path
       style="fill:none;stroke:#000000;stroke-width:1px;stroke-linecap:butt;stroke-linejoin:miter;stroke-opacity:1"
       d="m 427,58.362183 -69,-48 -8,112.999997"
       id="path4399"
       inkscape:connector-curvature="0" />
    <path
       style="fill:none;stroke:#000000;stroke-width:1px;stroke-linecap:butt;stroke-linejoin:miter;stroke-opacity:1"
       d="m 276,67.362183 77,55.999997"
       id="path4055"
       inkscape:connector-curvature="0" />
    <path
       style="fill:none;stroke:#000000;stroke-width:1px;stroke-linecap:butt;stroke-linejoin:miter;stroke-opacity:1"
       d="M 431,62.362183 353,125.36218"
       id="path4057"
       inkscape:connector-curvature="0" />
    <path
       style="fill:none;stroke:#000000;stroke-width:1px;stroke-linecap:butt;stroke-linejoin:miter;stroke-opacity:1"
       d="m 498,112.36218 -78,67"
       id="path4059"
       inkscape:connector-curvature="0" />
    <path
       style="fill:none;stroke:#000000;stroke-width:1px;stroke-linecap:butt;stroke-linejoin:miter;stroke-opacity:1"
       d="m 422,179.36218 102,40"
       id="path4403"
       inkscape:connector-curvature="0" />
    <path
       style="fill:none;stroke:#000000;stroke-width:1px;stroke-linecap:butt;stroke-linejoin:miter;stroke-opacity:1"
       d="m 497,111.36218 26,108"
       id="path4063"
       inkscape:connector-curvature="0" />
    <path
       style="fill:none;stroke:#000000;stroke-width:1px;stroke-linecap:butt;stroke-linejoin:miter;stroke-opacity:1"
       d="m 516,17.362183 -89,43 16,-98 z"
       id="path4397"
       inkscape:connector-curvature="0" />
    <path
       style="fill:none;stroke:#000000;stroke-width:1px;stroke-linecap:butt;stroke-linejoin:miter;stroke-opacity:1;marker-end:none;marker-start:none"
       d="M 269.76124,368.58992 349.6643,327.57773"
       id="path3177"
       inkscape:connector-curvature="0" />
    <path
       style="fill:none;stroke:#000000;stroke-width:1px;stroke-linecap:butt;stroke-linejoin:miter;stroke-opacity:1;marker-end:none;marker-start:none"
       d="m 350.37141,326.51707 72.12489,45.60839"
       id="path4177"
       inkscape:connector-curvature="0" />
    <path
       style="fill:none;stroke:#000000;stroke-width:1px;stroke-linecap:butt;stroke-linejoin:miter;stroke-opacity:1"
       d="m 433,467.36218 -71,49"
       id="path5057"
       inkscape:connector-curvature="0" />
    <path
       style="fill:none;stroke:#000000;stroke-width:1px;stroke-linecap:butt;stroke-linejoin:miter;stroke-opacity:1"
       d="m 274,466.36218 82,49"
       id="path5065"
       inkscape:connector-curvature="0" />
    <path
       style="fill:none;stroke:#000000;stroke-width:1px;stroke-linecap:butt;stroke-linejoin:miter;stroke-opacity:1"
       d="m 271,368.36218 4,104"
       id="path5067"
       inkscape:connector-curvature="0" />
    <path
       transform="translate(153,51)"
       sodipodi:type="arc"
       style="fill:#00ff00;fill-opacity:1;fill-rule:evenodd;stroke:#000000;stroke-width:1px;stroke-linecap:butt;stroke-linejoin:miter;stroke-opacity:1"
       id="path2987-4"
       sodipodi:cx="196"
       sodipodi:cy="276.36218"
       sodipodi:rx="19"
       sodipodi:ry="19"
       d="m 215,276.36218 a 19,19 0 1 1 -38,0 19,19 0 1 1 38,0 z" />
    <path
       transform="translate(74,91)"
       sodipodi:type="arc"
       style="fill:#00ff00;fill-opacity:1;fill-rule:evenodd;stroke:#000000;stroke-width:1px;stroke-linecap:butt;stroke-linejoin:miter;stroke-opacity:1"
       id="path2987-2"
       sodipodi:cx="196"
       sodipodi:cy="276.36218"
       sodipodi:rx="19"
       sodipodi:ry="19"
       d="m 215,276.36218 a 19,19 0 1 1 -38,0 19,19 0 1 1 38,0 z" />
    <path
       transform="translate(162,239)"
       sodipodi:type="arc"
       style="fill:#00ff00;fill-opacity:1;fill-rule:evenodd;stroke:#000000;stroke-width:1px;stroke-linecap:butt;stroke-linejoin:miter;stroke-opacity:1"
       id="path2987-4-5"
       sodipodi:cx="196"
       sodipodi:cy="276.36218"
       sodipodi:rx="19"
       sodipodi:ry="19"
       d="m 215,276.36218 a 19,19 0 1 1 -38,0 19,19 0 1 1 38,0 z" />
    <path
       transform="translate(79,190)"
       sodipodi:type="arc"
       style="fill:#00ff00;fill-opacity:1;fill-rule:evenodd;stroke:#000000;stroke-width:1px;stroke-linecap:butt;stroke-linejoin:miter;stroke-opacity:1"
       id="path2987-4-12"
       sodipodi:cx="196"
       sodipodi:cy="276.36218"
       sodipodi:rx="19"
       sodipodi:ry="19"
       d="m 215,276.36218 a 19,19 0 1 1 -38,0 19,19 0 1 1 38,0 z" />
    <path
       transform="translate(-13,-50)"
       sodipodi:type="arc"
       style="fill:#ff0000;fill-opacity:1;fill-rule:evenodd;stroke:#000000;stroke-width:1px;stroke-linecap:butt;stroke-linejoin:miter;stroke-opacity:1"
       id="path2987-4-9-1"
       sodipodi:cx="196"
       sodipodi:cy="276.36218"
       sodipodi:rx="19"
       sodipodi:ry="19"
       d="m 215,276.36218 a 19,19 0 1 1 -38,0 19,19 0 1 1 38,0 z" />
    <path
       transform="translate(74,-97)"
       sodipodi:type="arc"
       style="fill:#ff0000;fill-opacity:1;fill-rule:evenodd;stroke:#000000;stroke-width:1px;stroke-linecap:butt;stroke-linejoin:miter;stroke-opacity:1"
       id="path2987-4-9-2"
       sodipodi:cx="196"
       sodipodi:cy="276.36218"
       sodipodi:rx="19"
       sodipodi:ry="19"
       d="m 215,276.36218 a 19,19 0 1 1 -38,0 19,19 0 1 1 38,0 z" />
    <path
       transform="translate(326,-55)"
       sodipodi:type="arc"
       style="fill:#ff0000;fill-opacity:1;fill-rule:evenodd;stroke:#000000;stroke-width:1px;stroke-linecap:butt;stroke-linejoin:miter;stroke-opacity:1"
       id="path2987-4-9-5"
       sodipodi:cx="196"
       sodipodi:cy="276.36218"
       sodipodi:rx="19"
       sodipodi:ry="19"
       d="m 215,276.36218 a 19,19 0 1 1 -38,0 19,19 0 1 1 38,0 z" />
    <path
       transform="translate(227,-96)"
       sodipodi:type="arc"
       style="fill:#ff0000;fill-opacity:1;fill-rule:evenodd;stroke:#000000;stroke-width:1px;stroke-linecap:butt;stroke-linejoin:miter;stroke-opacity:1"
       id="path2987-4-9-17"
       sodipodi:cx="196"
       sodipodi:cy="276.36218"
       sodipodi:rx="19"
       sodipodi:ry="19"
       d="m 215,276.36218 a 19,19 0 1 1 -38,0 19,19 0 1 1 38,0 z" />
    <path
       transform="translate(168,436)"
       sodipodi:type="arc"
       style="fill:#ff0000;fill-opacity:1;fill-rule:evenodd;stroke:#000000;stroke-width:1px;stroke-linecap:butt;stroke-linejoin:miter;stroke-opacity:1"
       id="path2987-4-9-00"
       sodipodi:cx="196"
       sodipodi:cy="276.36218"
       sodipodi:rx="19"
       sodipodi:ry="19"
       d="m 215,276.36218 a 19,19 0 1 1 -38,0 19,19 0 1 1 38,0 z" />
    <path
       transform="translate(85,382)"
       sodipodi:type="arc"
       style="fill:#ff0000;fill-opacity:1;fill-rule:evenodd;stroke:#000000;stroke-width:1px;stroke-linecap:butt;stroke-linejoin:miter;stroke-opacity:1"
       id="path2987-4-9-6"
       sodipodi:cx="196"
       sodipodi:cy="276.36218"
       sodipodi:rx="19"
       sodipodi:ry="19"
       d="m 215,276.36218 a 19,19 0 1 1 -38,0 19,19 0 1 1 38,0 z" />
    <path
       transform="translate(406,168)"
       sodipodi:type="arc"
       style="fill:#ff0000;fill-opacity:1;fill-rule:evenodd;stroke:#000000;stroke-width:1px;stroke-linecap:butt;stroke-linejoin:miter;stroke-opacity:1"
       id="path2987-4-9-8"
       sodipodi:cx="196"
       sodipodi:cy="276.36218"
       sodipodi:rx="19"
       sodipodi:ry="19"
       d="m 215,276.36218 a 19,19 0 1 1 -38,0 19,19 0 1 1 38,0 z" />
    <path
       transform="translate(397,73)"
       sodipodi:type="arc"
       style="fill:#ff0000;fill-opacity:1;fill-rule:evenodd;stroke:#000000;stroke-width:1px;stroke-linecap:butt;stroke-linejoin:miter;stroke-opacity:1"
       id="path2987-4-9-57"
       sodipodi:cx="196"
       sodipodi:cy="276.36218"
       sodipodi:rx="19"
       sodipodi:ry="19"
       d="m 215,276.36218 a 19,19 0 1 1 -38,0 19,19 0 1 1 38,0 z" />
    <path
       transform="translate(257,388)"
       sodipodi:type="arc"
       style="fill:#ff0000;fill-opacity:1;fill-rule:evenodd;stroke:#000000;stroke-width:1px;stroke-linecap:butt;stroke-linejoin:miter;stroke-opacity:1"
       id="path2987-4-9-7"
       sodipodi:cx="196"
       sodipodi:cy="276.36218"
       sodipodi:rx="19"
       sodipodi:ry="19"
       d="m 215,276.36218 a 19,19 0 1 1 -38,0 19,19 0 1 1 38,0 z" />
    <path
       transform="translate(342,329)"
       sodipodi:type="arc"
       style="fill:#ff0000;fill-opacity:1;fill-rule:evenodd;stroke:#000000;stroke-width:1px;stroke-linecap:butt;stroke-linejoin:miter;stroke-opacity:1"
       id="path2987-4-9-4"
       sodipodi:cx="196"
       sodipodi:cy="276.36218"
       sodipodi:rx="19"
       sodipodi:ry="19"
       d="m 215,276.36218 a 19,19 0 1 1 -38,0 19,19 0 1 1 38,0 z" />
    <path
       transform="translate(406,280)"
       sodipodi:type="arc"
       style="fill:#ff0000;fill-opacity:1;fill-rule:evenodd;stroke:#000000;stroke-width:1px;stroke-linecap:butt;stroke-linejoin:miter;stroke-opacity:1"
       id="path2987-4-9-0"
       sodipodi:cx="196"
       sodipodi:cy="276.36218"
       sodipodi:rx="19"
       sodipodi:ry="19"
       d="m 215,276.36218 a 19,19 0 1 1 -38,0 19,19 0 1 1 38,0 z" />
    <path
       transform="matrix(-1.00771,0,0,1,550.51116,-151)"
       sodipodi:type="arc"
       style="fill:#ff0000;fill-opacity:1;fill-rule:evenodd;stroke:#000000;stroke-width:1px;stroke-linecap:butt;stroke-linejoin:miter;stroke-opacity:1"
       id="path2987-0-8"
       sodipodi:cx="196"
       sodipodi:cy="276.36218"
       sodipodi:rx="19"
       sodipodi:ry="19"
       d="m 215,276.36218 a 19,19 0 1 1 -38,0 19,19 0 1 1 38,0 z" />
    <path
       transform="matrix(-1.00771,0,0,1,694.51116,-163)"
       sodipodi:type="arc"
       style="fill:#b1b1b1;fill-opacity:1;fill-rule:evenodd;stroke:#000000;stroke-width:1px;stroke-linecap:butt;stroke-linejoin:miter;stroke-opacity:1"
       id="path2987-0-7"
       sodipodi:cx="196"
       sodipodi:cy="276.36218"
       sodipodi:rx="19"
       sodipodi:ry="19"
       d="m 215,276.36218 a 19,19 0 1 1 -38,0 19,19 0 1 1 38,0 z" />
    <path
       transform="matrix(-1.00771,0,0,1,789.51116,-125)"
       sodipodi:type="arc"
       style="fill:#b1b1b1;fill-opacity:1;fill-rule:evenodd;stroke:#000000;stroke-width:1px;stroke-linecap:butt;stroke-linejoin:miter;stroke-opacity:1"
       id="path2987-0-4"
       sodipodi:cx="196"
       sodipodi:cy="276.36218"
       sodipodi:rx="19"
       sodipodi:ry="19"
       d="m 215,276.36218 a 19,19 0 1 1 -38,0 19,19 0 1 1 38,0 z" />
    <path
       transform="matrix(-1.00771,0,0,1,798.51116,-17)"
       sodipodi:type="arc"
       style="fill:#ff0000;fill-opacity:1;fill-rule:evenodd;stroke:#000000;stroke-width:1px;stroke-linecap:butt;stroke-linejoin:miter;stroke-opacity:1"
       id="path2987-0-70"
       sodipodi:cx="196"
       sodipodi:cy="276.36218"
       sodipodi:rx="19"
       sodipodi:ry="19"
       d="m 215,276.36218 a 19,19 0 1 1 -38,0 19,19 0 1 1 38,0 z" />
    <path
       transform="matrix(-1.00771,0,0,1,885.51116,107)"
       sodipodi:type="arc"
       style="fill:#b1b1b1;fill-opacity:1;fill-rule:evenodd;stroke:#000000;stroke-width:1px;stroke-linecap:butt;stroke-linejoin:miter;stroke-opacity:1"
       id="path2987-0-6"
       sodipodi:cx="196"
       sodipodi:cy="276.36218"
       sodipodi:rx="19"
       sodipodi:ry="19"
       d="m 215,276.36218 a 19,19 0 1 1 -38,0 19,19 0 1 1 38,0 z" />
    <path
       transform="matrix(-1.00771,0,0,1,889.51116,226)"
       sodipodi:type="arc"
       style="fill:#b1b1b1;fill-opacity:1;fill-rule:evenodd;stroke:#000000;stroke-width:1px;stroke-linecap:butt;stroke-linejoin:miter;stroke-opacity:1"
       id="path2987-0-45"
       sodipodi:cx="196"
       sodipodi:cy="276.36218"
       sodipodi:rx="19"
       sodipodi:ry="19"
       d="m 215,276.36218 a 19,19 0 1 1 -38,0 19,19 0 1 1 38,0 z" />
    <path
       transform="matrix(-1.00771,0,0,1,898.51116,318)"
       sodipodi:type="arc"
       style="fill:#b1b1b1;fill-opacity:1;fill-rule:evenodd;stroke:#000000;stroke-width:1px;stroke-linecap:butt;stroke-linejoin:miter;stroke-opacity:1"
       id="path2987-0-74"
       sodipodi:cx="196"
       sodipodi:cy="276.36218"
       sodipodi:rx="19"
       sodipodi:ry="19"
       d="m 215,276.36218 a 19,19 0 1 1 -38,0 19,19 0 1 1 38,0 z" />
    <path
       transform="matrix(-1.00771,0,0,1,743.51116,437)"
       sodipodi:type="arc"
       style="fill:#b1b1b1;fill-opacity:1;fill-rule:evenodd;stroke:#000000;stroke-width:1px;stroke-linecap:butt;stroke-linejoin:miter;stroke-opacity:1"
       id="path2987-0-9"
       sodipodi:cx="196"
       sodipodi:cy="276.36218"
       sodipodi:rx="19"
       sodipodi:ry="19"
       d="m 215,276.36218 a 19,19 0 1 1 -38,0 19,19 0 1 1 38,0 z" />
    <path
       transform="matrix(-1.00771,0,0,1,647.51116,500)"
       sodipodi:type="arc"
       style="fill:#b1b1b1;fill-opacity:1;fill-rule:evenodd;stroke:#000000;stroke-width:1px;stroke-linecap:butt;stroke-linejoin:miter;stroke-opacity:1"
       id="path2987-0-60"
       sodipodi:cx="196"
       sodipodi:cy="276.36218"
       sodipodi:rx="19"
       sodipodi:ry="19"
       d="m 215,276.36218 a 19,19 0 1 1 -38,0 19,19 0 1 1 38,0 z" />
    <path
       transform="matrix(-1.00771,0,0,1,817.51116,377)"
       sodipodi:type="arc"
       style="fill:#b1b1b1;fill-opacity:1;fill-rule:evenodd;stroke:#000000;stroke-width:1px;stroke-linecap:butt;stroke-linejoin:miter;stroke-opacity:1"
       id="path2987-0-42"
       sodipodi:cx="196"
       sodipodi:cy="276.36218"
       sodipodi:rx="19"
       sodipodi:ry="19"
       d="m 215,276.36218 a 19,19 0 1 1 -38,0 19,19 0 1 1 38,0 z" />
    <path
       transform="matrix(-1.00771,0,0,1,388.51116,341)"
       sodipodi:type="arc"
       style="fill:#ff0000;fill-opacity:1;fill-rule:evenodd;stroke:#000000;stroke-width:1px;stroke-linecap:butt;stroke-linejoin:miter;stroke-opacity:1"
       id="path2987-0-86"
       sodipodi:cx="196"
       sodipodi:cy="276.36218"
       sodipodi:rx="19"
       sodipodi:ry="19"
       d="m 215,276.36218 a 19,19 0 1 1 -38,0 19,19 0 1 1 38,0 z" />
    <path
       transform="matrix(-1.00771,0,0,1,474.51116,479)"
       sodipodi:type="arc"
       style="fill:#b1b1b1;fill-opacity:1;fill-rule:evenodd;stroke:#000000;stroke-width:1px;stroke-linecap:butt;stroke-linejoin:miter;stroke-opacity:1"
       id="path2987-0-85"
       sodipodi:cx="196"
       sodipodi:cy="276.36218"
       sodipodi:rx="19"
       sodipodi:ry="19"
       d="m 215,276.36218 a 19,19 0 1 1 -38,0 19,19 0 1 1 38,0 z" />
    <path
       transform="matrix(-1.00771,0,0,1,390.51116,432)"
       sodipodi:type="arc"
       style="fill:#b1b1b1;fill-opacity:1;fill-rule:evenodd;stroke:#000000;stroke-width:1px;stroke-linecap:butt;stroke-linejoin:miter;stroke-opacity:1"
       id="path2987-0-0"
       sodipodi:cx="196"
       sodipodi:cy="276.36218"
       sodipodi:rx="19"
       sodipodi:ry="19"
       d="m 215,276.36218 a 19,19 0 1 1 -38,0 19,19 0 1 1 38,0 z" />
    <path
       transform="matrix(-1.00771,0,0,1,306.51116,381)"
       sodipodi:type="arc"
       style="fill:#b1b1b1;fill-opacity:1;fill-rule:evenodd;stroke:#000000;stroke-width:1px;stroke-linecap:butt;stroke-linejoin:miter;stroke-opacity:1"
       id="path2987-0-2"
       sodipodi:cx="196"
       sodipodi:cy="276.36218"
       sodipodi:rx="19"
       sodipodi:ry="19"
       d="m 215,276.36218 a 19,19 0 1 1 -38,0 19,19 0 1 1 38,0 z" />
    <path
       transform="matrix(-1.00771,0,0,1,307.51116,282)"
       sodipodi:type="arc"
       style="fill:#ff0000;fill-opacity:1;fill-rule:evenodd;stroke:#000000;stroke-width:1px;stroke-linecap:butt;stroke-linejoin:miter;stroke-opacity:1"
       id="path2987-0-82"
       sodipodi:cx="196"
       sodipodi:cy="276.36218"
       sodipodi:rx="19"
       sodipodi:ry="19"
       d="m 215,276.36218 a 19,19 0 1 1 -38,0 19,19 0 1 1 38,0 z" />
    <path
       transform="matrix(-1.00771,0,0,1,305.51116,191)"
       sodipodi:type="arc"
       style="fill:#ff0000;fill-opacity:1;fill-rule:evenodd;stroke:#000000;stroke-width:1px;stroke-linecap:butt;stroke-linejoin:miter;stroke-opacity:1"
       id="path2987-0-07"
       sodipodi:cx="196"
       sodipodi:cy="276.36218"
       sodipodi:rx="19"
       sodipodi:ry="19"
       d="m 215,276.36218 a 19,19 0 1 1 -38,0 19,19 0 1 1 38,0 z" />
    <path
       transform="matrix(-1.00771,0,0,1,304.51116,100)"
       sodipodi:type="arc"
       style="fill:#ff0000;fill-opacity:1;fill-rule:evenodd;stroke:#000000;stroke-width:1px;stroke-linecap:butt;stroke-linejoin:miter;stroke-opacity:1"
       id="path2987-0-66"
       sodipodi:cx="196"
       sodipodi:cy="276.36218"
       sodipodi:rx="19"
       sodipodi:ry="19"
       d="m 215,276.36218 a 19,19 0 1 1 -38,0 19,19 0 1 1 38,0 z" />
    <path
       transform="matrix(-1.00771,0,0,1,307.51116,0)"
       sodipodi:type="arc"
       style="fill:#ff0000;fill-opacity:1;fill-rule:evenodd;stroke:#000000;stroke-width:1px;stroke-linecap:butt;stroke-linejoin:miter;stroke-opacity:1"
       id="path2987-0-67"
       sodipodi:cx="196"
       sodipodi:cy="276.36218"
       sodipodi:rx="19"
       sodipodi:ry="19"
       d="m 215,276.36218 a 19,19 0 1 1 -38,0 19,19 0 1 1 38,0 z" />
    <path
       transform="matrix(-1.00771,0,0,1,226.51116,52)"
       sodipodi:type="arc"
       style="fill:#b1b1b1;fill-opacity:1;fill-rule:evenodd;stroke:#000000;stroke-width:1px;stroke-linecap:butt;stroke-linejoin:miter;stroke-opacity:1"
       id="path2987-0-5"
       sodipodi:cx="196"
       sodipodi:cy="276.36218"
       sodipodi:rx="19"
       sodipodi:ry="19"
       d="m 215,276.36218 a 19,19 0 1 1 -38,0 19,19 0 1 1 38,0 z" />
    <path
       transform="matrix(-1.00771,0,0,1,226.51116,158)"
       sodipodi:type="arc"
       style="fill:#b1b1b1;fill-opacity:1;fill-rule:evenodd;stroke:#000000;stroke-width:1px;stroke-linecap:butt;stroke-linejoin:miter;stroke-opacity:1"
       id="path2987-0-52"
       sodipodi:cx="196"
       sodipodi:cy="276.36218"
       sodipodi:rx="19"
       sodipodi:ry="19"
       d="m 215,276.36218 a 19,19 0 1 1 -38,0 19,19 0 1 1 38,0 z" />
    <path
       transform="matrix(-1.00771,0,0,1,236.51116,-57)"
       sodipodi:type="arc"
       style="fill:#b1b1b1;fill-opacity:1;fill-rule:evenodd;stroke:#000000;stroke-width:1px;stroke-linecap:butt;stroke-linejoin:miter;stroke-opacity:1"
       id="path2987-0-3"
       sodipodi:cx="196"
       sodipodi:cy="276.36218"
       sodipodi:rx="19"
       sodipodi:ry="19"
       d="m 215,276.36218 a 19,19 0 1 1 -38,0 19,19 0 1 1 38,0 z" />
    <path
       transform="matrix(-1.00771,0,0,1,308.51116,-123)"
       sodipodi:type="arc"
       style="fill:#b1b1b1;fill-opacity:1;fill-rule:evenodd;stroke:#000000;stroke-width:1px;stroke-linecap:butt;stroke-linejoin:miter;stroke-opacity:1"
       id="path2987-0-58"
       sodipodi:cx="196"
       sodipodi:cy="276.36218"
       sodipodi:rx="19"
       sodipodi:ry="19"
       d="m 215,276.36218 a 19,19 0 1 1 -38,0 19,19 0 1 1 38,0 z" />
    <path
       transform="matrix(-1.00771,0,0,1,388.51116,-161)"
       sodipodi:type="arc"
       style="fill:#b1b1b1;fill-opacity:1;fill-rule:evenodd;stroke:#000000;stroke-width:1px;stroke-linecap:butt;stroke-linejoin:miter;stroke-opacity:1"
       id="path2987-0-90"
       sodipodi:cx="196"
       sodipodi:cy="276.36218"
       sodipodi:rx="19"
       sodipodi:ry="19"
       d="m 215,276.36218 a 19,19 0 1 1 -38,0 19,19 0 1 1 38,0 z" />
    <path
       transform="matrix(-1.00771,0,0,1,470.51116,-208)"
       sodipodi:type="arc"
       style="fill:#b1b1b1;fill-opacity:1;fill-rule:evenodd;stroke:#000000;stroke-width:1px;stroke-linecap:butt;stroke-linejoin:miter;stroke-opacity:1"
       id="path2987-0-73"
       sodipodi:cx="196"
       sodipodi:cy="276.36218"
       sodipodi:rx="19"
       sodipodi:ry="19"
       d="m 215,276.36218 a 19,19 0 1 1 -38,0 19,19 0 1 1 38,0 z" />
    <path
       transform="matrix(-1.00771,0,0,1,627.51116,-216)"
       sodipodi:type="arc"
       style="fill:#b1b1b1;fill-opacity:1;fill-rule:evenodd;stroke:#000000;stroke-width:1px;stroke-linecap:butt;stroke-linejoin:miter;stroke-opacity:1"
       id="path2987-0-1"
       sodipodi:cx="196"
       sodipodi:cy="276.36218"
       sodipodi:rx="19"
       sodipodi:ry="19"
       d="m 215,276.36218 a 19,19 0 1 1 -38,0 19,19 0 1 1 38,0 z" />
    <path
       style="fill:none;stroke:#000000;stroke-width:1px;stroke-linecap:butt;stroke-linejoin:miter;stroke-opacity:1"
       d="m 421,372.36218 15,95"
       id="path4105"
       inkscape:connector-curvature="0" />
    <path
       transform="translate(238,190)"
       sodipodi:type="arc"
       style="fill:#00ff00;fill-opacity:1;fill-rule:evenodd;stroke:#000000;stroke-width:1px;stroke-linecap:butt;stroke-linejoin:miter;stroke-opacity:1"
       id="path2987-4-6-2"
       sodipodi:cx="196"
       sodipodi:cy="276.36218"
       sodipodi:rx="19"
       sodipodi:ry="19"
       d="m 215,276.36218 a 19,19 0 1 1 -38,0 19,19 0 1 1 38,0 z" />
    <path
       transform="translate(225,96)"
       sodipodi:type="arc"
       style="fill:#00ff00;fill-opacity:1;fill-rule:evenodd;stroke:#000000;stroke-width:1px;stroke-linecap:butt;stroke-linejoin:miter;stroke-opacity:1"
       id="path2987-4-65"
       sodipodi:cx="196"
       sodipodi:cy="276.36218"
       sodipodi:rx="19"
       sodipodi:ry="19"
       d="m 215,276.36218 a 19,19 0 1 1 -38,0 19,19 0 1 1 38,0 z" />
    <path
       transform="matrix(-1.00771,0,0,1,790.51116,-215)"
       sodipodi:type="arc"
       style="fill:#b1b1b1;fill-opacity:1;fill-rule:evenodd;stroke:#000000;stroke-width:1px;stroke-linecap:butt;stroke-linejoin:miter;stroke-opacity:1"
       id="path2987-0-1-3-6"
       sodipodi:cx="196"
       sodipodi:cy="276.36218"
       sodipodi:rx="19"
       sodipodi:ry="19"
       d="m 215,276.36218 a 19,19 0 1 1 -38,0 19,19 0 1 1 38,0 z" />
    <path
       transform="matrix(-1.00771,0,0,1,794.51116,-319)"
       sodipodi:type="arc"
       style="fill:#00ff00;fill-opacity:1;fill-rule:evenodd;stroke:#000000;stroke-width:1px;stroke-linecap:butt;stroke-linejoin:miter;stroke-opacity:1"
       id="path2987-0-1-3-63"
       sodipodi:cx="196"
       sodipodi:cy="276.36218"
       sodipodi:rx="19"
       sodipodi:ry="19"
       d="m 215,276.36218 a 19,19 0 1 1 -38,0 19,19 0 1 1 38,0 z" />
    <path
       transform="matrix(-1.00771,0,0,1,872.51116,-258)"
       sodipodi:type="arc"
       style="fill:#00ff00;fill-opacity:1;fill-rule:evenodd;stroke:#000000;stroke-width:1px;stroke-linecap:butt;stroke-linejoin:miter;stroke-opacity:1"
       id="path2987-0-1-3-61"
       sodipodi:cx="196"
       sodipodi:cy="276.36218"
       sodipodi:rx="19"
       sodipodi:ry="19"
       d="m 215,276.36218 a 19,19 0 1 1 -38,0 19,19 0 1 1 38,0 z" />
    <path
       transform="matrix(-1.00771,0,0,1,879.51116,-171)"
       sodipodi:type="arc"
       style="fill:#00ff00;fill-opacity:1;fill-rule:evenodd;stroke:#000000;stroke-width:1px;stroke-linecap:butt;stroke-linejoin:miter;stroke-opacity:1"
       id="path2987-0-1-3-58"
       sodipodi:cx="196"
       sodipodi:cy="276.36218"
       sodipodi:rx="19"
       sodipodi:ry="19"
       d="m 215,276.36218 a 19,19 0 1 1 -38,0 19,19 0 1 1 38,0 z" />
    <path
       transform="matrix(-1.00771,0,0,1,883.51116,-76)"
       sodipodi:type="arc"
       style="fill:#00ff00;fill-opacity:1;fill-rule:evenodd;stroke:#000000;stroke-width:1px;stroke-linecap:butt;stroke-linejoin:miter;stroke-opacity:1"
       id="path2987-0-1-3-1"
       sodipodi:cx="196"
       sodipodi:cy="276.36218"
       sodipodi:rx="19"
       sodipodi:ry="19"
       d="m 215,276.36218 a 19,19 0 1 1 -38,0 19,19 0 1 1 38,0 z" />
    <path
       transform="matrix(-1.00771,0,0,1,886.51116,19)"
       sodipodi:type="arc"
       style="fill:#b1b1b1;fill-opacity:1;fill-rule:evenodd;stroke:#000000;stroke-width:1px;stroke-linecap:butt;stroke-linejoin:miter;stroke-opacity:1"
       id="path2987-0-1-3-71"
       sodipodi:cx="196"
       sodipodi:cy="276.36218"
       sodipodi:rx="19"
       sodipodi:ry="19"
       d="m 215,276.36218 a 19,19 0 1 1 -38,0 19,19 0 1 1 38,0 z" />
    <path
       transform="matrix(-1.00771,0,0,1,961.51116,-29)"
       sodipodi:type="arc"
       style="fill:#00ff00;fill-opacity:1;fill-rule:evenodd;stroke:#000000;stroke-width:1px;stroke-linecap:butt;stroke-linejoin:miter;stroke-opacity:1"
       id="path2987-0-1-3-9"
       sodipodi:cx="196"
       sodipodi:cy="276.36218"
       sodipodi:rx="19"
       sodipodi:ry="19"
       d="m 215,276.36218 a 19,19 0 1 1 -38,0 19,19 0 1 1 38,0 z" />
    <path
       transform="matrix(-1.00771,0,0,1,960.51116,59)"
       sodipodi:type="arc"
       style="fill:#00ff00;fill-opacity:1;fill-rule:evenodd;stroke:#000000;stroke-width:1px;stroke-linecap:butt;stroke-linejoin:miter;stroke-opacity:1"
       id="path2987-0-1-3-67"
       sodipodi:cx="196"
       sodipodi:cy="276.36218"
       sodipodi:rx="19"
       sodipodi:ry="19"
       d="m 215,276.36218 a 19,19 0 1 1 -38,0 19,19 0 1 1 38,0 z" />
    <path
       transform="matrix(-1.00771,0,0,1,957.51116,172)"
       sodipodi:type="arc"
       style="fill:#00ff00;fill-opacity:1;fill-rule:evenodd;stroke:#000000;stroke-width:1px;stroke-linecap:butt;stroke-linejoin:miter;stroke-opacity:1"
       id="path2987-0-1-3-615"
       sodipodi:cx="196"
       sodipodi:cy="276.36218"
       sodipodi:rx="19"
       sodipodi:ry="19"
       d="m 215,276.36218 a 19,19 0 1 1 -38,0 19,19 0 1 1 38,0 z" />
    <path
       transform="matrix(-1.00771,0,0,1,968.51116,270)"
       sodipodi:type="arc"
       style="fill:#00ff00;fill-opacity:1;fill-rule:evenodd;stroke:#000000;stroke-width:1px;stroke-linecap:butt;stroke-linejoin:miter;stroke-opacity:1"
       id="path2987-0-1-3-68"
       sodipodi:cx="196"
       sodipodi:cy="276.36218"
       sodipodi:rx="19"
       sodipodi:ry="19"
       d="m 215,276.36218 a 19,19 0 1 1 -38,0 19,19 0 1 1 38,0 z" />
    <path
       transform="matrix(-1.00771,0,0,1,958.51116,387)"
       sodipodi:type="arc"
       style="fill:#00ff00;fill-opacity:1;fill-rule:evenodd;stroke:#000000;stroke-width:1px;stroke-linecap:butt;stroke-linejoin:miter;stroke-opacity:1"
       id="path2987-0-1-3-0"
       sodipodi:cx="196"
       sodipodi:cy="276.36218"
       sodipodi:rx="19"
       sodipodi:ry="19"
       d="m 215,276.36218 a 19,19 0 1 1 -38,0 19,19 0 1 1 38,0 z" />
    <path
       transform="matrix(-1.00771,0,0,1,888.51116,430)"
       sodipodi:type="arc"
       style="fill:#00ff00;fill-opacity:1;fill-rule:evenodd;stroke:#000000;stroke-width:1px;stroke-linecap:butt;stroke-linejoin:miter;stroke-opacity:1"
       id="path2987-0-1-3-8"
       sodipodi:cx="196"
       sodipodi:cy="276.36218"
       sodipodi:rx="19"
       sodipodi:ry="19"
       d="m 215,276.36218 a 19,19 0 1 1 -38,0 19,19 0 1 1 38,0 z" />
    <path
       transform="matrix(-1.00771,0,0,1,817.51116,495)"
       sodipodi:type="arc"
       style="fill:#00ff00;fill-opacity:1;fill-rule:evenodd;stroke:#000000;stroke-width:1px;stroke-linecap:butt;stroke-linejoin:miter;stroke-opacity:1"
       id="path2987-0-1-3-17"
       sodipodi:cx="196"
       sodipodi:cy="276.36218"
       sodipodi:rx="19"
       sodipodi:ry="19"
       d="m 215,276.36218 a 19,19 0 1 1 -38,0 19,19 0 1 1 38,0 z" />
    <path
       transform="matrix(-1.00771,0,0,1,731.51116,551)"
       sodipodi:type="arc"
       style="fill:#00ff00;fill-opacity:1;fill-rule:evenodd;stroke:#000000;stroke-width:1px;stroke-linecap:butt;stroke-linejoin:miter;stroke-opacity:1"
       id="path2987-0-1-3-80"
       sodipodi:cx="196"
       sodipodi:cy="276.36218"
       sodipodi:rx="19"
       sodipodi:ry="19"
       d="m 215,276.36218 a 19,19 0 1 1 -38,0 19,19 0 1 1 38,0 z" />
    <path
       transform="matrix(-1.00771,0,0,1,645.51116,604)"
       sodipodi:type="arc"
       style="fill:#00ff00;fill-opacity:1;fill-rule:evenodd;stroke:#000000;stroke-width:1px;stroke-linecap:butt;stroke-linejoin:miter;stroke-opacity:1"
       id="path2987-0-1-3-77"
       sodipodi:cx="196"
       sodipodi:cy="276.36218"
       sodipodi:rx="19"
       sodipodi:ry="19"
       d="m 215,276.36218 a 19,19 0 1 1 -38,0 19,19 0 1 1 38,0 z" />
    <path
       transform="matrix(-1.00771,0,0,1,563.51116,544)"
       sodipodi:type="arc"
       style="fill:#00ff00;fill-opacity:1;fill-rule:evenodd;stroke:#000000;stroke-width:1px;stroke-linecap:butt;stroke-linejoin:miter;stroke-opacity:1"
       id="path2987-0-1-3-50"
       sodipodi:cx="196"
       sodipodi:cy="276.36218"
       sodipodi:rx="19"
       sodipodi:ry="19"
       d="m 215,276.36218 a 19,19 0 1 1 -38,0 19,19 0 1 1 38,0 z" />
    <path
       transform="matrix(-1.00771,0,0,1,468.51116,584)"
       sodipodi:type="arc"
       style="fill:#00ff00;fill-opacity:1;fill-rule:evenodd;stroke:#000000;stroke-width:1px;stroke-linecap:butt;stroke-linejoin:miter;stroke-opacity:1"
       id="path2987-0-1-3-03"
       sodipodi:cx="196"
       sodipodi:cy="276.36218"
       sodipodi:rx="19"
       sodipodi:ry="19"
       d="m 215,276.36218 a 19,19 0 1 1 -38,0 19,19 0 1 1 38,0 z" />
    <path
       transform="matrix(-1.00771,0,0,1,383.51116,530)"
       sodipodi:type="arc"
       style="fill:#00ff00;fill-opacity:1;fill-rule:evenodd;stroke:#000000;stroke-width:1px;stroke-linecap:butt;stroke-linejoin:miter;stroke-opacity:1"
       id="path2987-0-1-3-78"
       sodipodi:cx="196"
       sodipodi:cy="276.36218"
       sodipodi:rx="19"
       sodipodi:ry="19"
       d="m 215,276.36218 a 19,19 0 1 1 -38,0 19,19 0 1 1 38,0 z" />
    <path
       transform="matrix(-1.00771,0,0,1,309.51116,486)"
       sodipodi:type="arc"
       style="fill:#00fe00;fill-opacity:1;fill-rule:evenodd;stroke:#000000;stroke-width:1px;stroke-linecap:butt;stroke-linejoin:miter;stroke-opacity:1"
       id="path2987-0-1-3-92"
       sodipodi:cx="196"
       sodipodi:cy="276.36218"
       sodipodi:rx="19"
       sodipodi:ry="19"
       d="m 215,276.36218 a 19,19 0 1 1 -38,0 19,19 0 1 1 38,0 z" />
    <path
       transform="matrix(-1.00771,0,0,1,223.51116,435)"
       sodipodi:type="arc"
       style="fill:#00f300;fill-opacity:1;fill-rule:evenodd;stroke:#000000;stroke-width:1px;stroke-linecap:butt;stroke-linejoin:miter;stroke-opacity:1"
       id="path2987-0-1-3-4"
       sodipodi:cx="196"
       sodipodi:cy="276.36218"
       sodipodi:rx="19"
       sodipodi:ry="19"
       d="m 215,276.36218 a 19,19 0 1 1 -38,0 19,19 0 1 1 38,0 z" />
    <path
       transform="matrix(-1.00771,0,0,1,218.51116,336)"
       sodipodi:type="arc"
       style="fill:#b1b1b1;fill-opacity:1;fill-rule:evenodd;stroke:#000000;stroke-width:1px;stroke-linecap:butt;stroke-linejoin:miter;stroke-opacity:1"
       id="path2987-0-1-3-2"
       sodipodi:cx="196"
       sodipodi:cy="276.36218"
       sodipodi:rx="19"
       sodipodi:ry="19"
       d="m 215,276.36218 a 19,19 0 1 1 -38,0 19,19 0 1 1 38,0 z" />
    <path
       transform="matrix(-1.00771,0,0,1,217.51116,240)"
       sodipodi:type="arc"
       style="fill:#b1b1b1;fill-opacity:1;fill-rule:evenodd;stroke:#000000;stroke-width:1px;stroke-linecap:butt;stroke-linejoin:miter;stroke-opacity:1"
       id="path2987-0-1-3-85"
       sodipodi:cx="196"
       sodipodi:cy="276.36218"
       sodipodi:rx="19"
       sodipodi:ry="19"
       d="m 215,276.36218 a 19,19 0 1 1 -38,0 19,19 0 1 1 38,0 z" />
    <path
       transform="matrix(-1.00771,0,0,1,143.51116,378)"
       sodipodi:type="arc"
       style="fill:#00ff00;fill-opacity:1;fill-rule:evenodd;stroke:#000000;stroke-width:1px;stroke-linecap:butt;stroke-linejoin:miter;stroke-opacity:1"
       id="path2987-0-1-3-47"
       sodipodi:cx="196"
       sodipodi:cy="276.36218"
       sodipodi:rx="19"
       sodipodi:ry="19"
       d="m 215,276.36218 a 19,19 0 1 1 -38,0 19,19 0 1 1 38,0 z" />
    <path
       transform="matrix(-1.00771,0,0,1,140.51116,281)"
       sodipodi:type="arc"
       style="fill:#00ff00;fill-opacity:1;fill-rule:evenodd;stroke:#000000;stroke-width:1px;stroke-linecap:butt;stroke-linejoin:miter;stroke-opacity:1"
       id="path2987-0-1-3-633"
       sodipodi:cx="196"
       sodipodi:cy="276.36218"
       sodipodi:rx="19"
       sodipodi:ry="19"
       d="m 215,276.36218 a 19,19 0 1 1 -38,0 19,19 0 1 1 38,0 z" />
    <path
       transform="matrix(-1.00771,0,0,1,149.51116,185)"
       sodipodi:type="arc"
       style="fill:#00ff00;fill-opacity:1;fill-rule:evenodd;stroke:#000000;stroke-width:1px;stroke-linecap:butt;stroke-linejoin:miter;stroke-opacity:1"
       id="path2987-0-1-3-51"
       sodipodi:cx="196"
       sodipodi:cy="276.36218"
       sodipodi:rx="19"
       sodipodi:ry="19"
       d="m 215,276.36218 a 19,19 0 1 1 -38,0 19,19 0 1 1 38,0 z" />
    <path
       transform="matrix(-1.00771,0,0,1,156.51116,95)"
       sodipodi:type="arc"
       style="fill:#00ff00;fill-opacity:1;fill-rule:evenodd;stroke:#000000;stroke-width:1px;stroke-linecap:butt;stroke-linejoin:miter;stroke-opacity:1"
       id="path2987-0-1-3-62"
       sodipodi:cx="196"
       sodipodi:cy="276.36218"
       sodipodi:rx="19"
       sodipodi:ry="19"
       d="m 215,276.36218 a 19,19 0 1 1 -38,0 19,19 0 1 1 38,0 z" />
    <path
       transform="matrix(-1.00771,0,0,1,155.51116,-6)"
       sodipodi:type="arc"
       style="fill:#00ff00;fill-opacity:1;fill-rule:evenodd;stroke:#000000;stroke-width:1px;stroke-linecap:butt;stroke-linejoin:miter;stroke-opacity:1"
       id="path2987-0-1-3-75"
       sodipodi:cx="196"
       sodipodi:cy="276.36218"
       sodipodi:rx="19"
       sodipodi:ry="19"
       d="m 215,276.36218 a 19,19 0 1 1 -38,0 19,19 0 1 1 38,0 z"
       inkscape:transform-center-x="9"
       inkscape:transform-center-y="86" />
    <path
       transform="matrix(-1.00771,0,0,1,162.51116,-120)"
       sodipodi:type="arc"
       style="fill:#00ff00;fill-opacity:1;fill-rule:evenodd;stroke:#000000;stroke-width:1px;stroke-linecap:butt;stroke-linejoin:miter;stroke-opacity:1"
       id="path2987-0-1-3-478"
       sodipodi:cx="196"
       sodipodi:cy="276.36218"
       sodipodi:rx="19"
       sodipodi:ry="19"
       d="m 215,276.36218 a 19,19 0 1 1 -38,0 19,19 0 1 1 38,0 z" />
    <path
       transform="matrix(-1.00771,0,0,1,236.51116,-193)"
       sodipodi:type="arc"
       style="fill:#00ff00;fill-opacity:1;fill-rule:evenodd;stroke:#000000;stroke-width:1px;stroke-linecap:butt;stroke-linejoin:miter;stroke-opacity:1"
       id="path2987-0-1-3-171"
       sodipodi:cx="196"
       sodipodi:cy="276.36218"
       sodipodi:rx="19"
       sodipodi:ry="19"
       d="m 215,276.36218 a 19,19 0 1 1 -38,0 19,19 0 1 1 38,0 z" />
    <path
       transform="matrix(-1.00771,0,0,1,316.51116,-237)"
       sodipodi:type="arc"
       style="fill:#00ff00;fill-opacity:1;fill-rule:evenodd;stroke:#000000;stroke-width:1px;stroke-linecap:butt;stroke-linejoin:miter;stroke-opacity:1"
       id="path2987-0-1-3-04"
       sodipodi:cx="196"
       sodipodi:cy="276.36218"
       sodipodi:rx="19"
       sodipodi:ry="19"
       d="m 215,276.36218 a 19,19 0 1 1 -38,0 19,19 0 1 1 38,0 z" />
    <path
       transform="matrix(-1.00771,0,0,1,403.51116,-277)"
       sodipodi:type="arc"
       style="fill:#00ff00;fill-opacity:1;fill-rule:evenodd;stroke:#000000;stroke-width:1px;stroke-linecap:butt;stroke-linejoin:miter;stroke-opacity:1"
       id="path2987-0-1-3-807"
       sodipodi:cx="196"
       sodipodi:cy="276.36218"
       sodipodi:rx="19"
       sodipodi:ry="19"
       d="m 215,276.36218 a 19,19 0 1 1 -38,0 19,19 0 1 1 38,0 z"
       inkscape:transform-center-x="62"
       inkscape:transform-center-y="26" />
    <path
       transform="matrix(-1.00771,0,0,1,483.51116,-323)"
       sodipodi:type="arc"
       style="fill:#00ff00;fill-opacity:1;fill-rule:evenodd;stroke:#000000;stroke-width:1px;stroke-linecap:butt;stroke-linejoin:miter;stroke-opacity:1"
       id="path2987-0-1-3-175"
       sodipodi:cx="196"
       sodipodi:cy="276.36218"
       sodipodi:rx="19"
       sodipodi:ry="19"
       d="m 215,276.36218 a 19,19 0 1 1 -38,0 19,19 0 1 1 38,0 z" />
    <path
       transform="matrix(-1.00771,0,0,1,710.51116,-258)"
       sodipodi:type="arc"
       style="fill:#b1b1b1;fill-opacity:1;fill-rule:evenodd;stroke:#000000;stroke-width:1px;stroke-linecap:butt;stroke-linejoin:miter;stroke-opacity:1"
       id="path2987-0-1-3-7"
       sodipodi:cx="196"
       sodipodi:cy="276.36218"
       sodipodi:rx="19"
       sodipodi:ry="19"
       d="m 215,276.36218 a 19,19 0 1 1 -38,0 19,19 0 1 1 38,0 z" />
    <path
       transform="matrix(-1.00771,0,0,1,640.51116,-311)"
       sodipodi:type="arc"
       style="fill:#00ff00;fill-opacity:1;fill-rule:evenodd;stroke:#000000;stroke-width:1px;stroke-linecap:butt;stroke-linejoin:miter;stroke-opacity:1"
       id="path2987-0-1-3-5"
       sodipodi:cx="196"
       sodipodi:cy="276.36218"
       sodipodi:rx="19"
       sodipodi:ry="19"
       d="m 215,276.36218 a 19,19 0 1 1 -38,0 19,19 0 1 1 38,0 z" />
    <path
       transform="matrix(-1.00771,0,0,1,554.51116,-267)"
       sodipodi:type="arc"
       style="fill:#00ff00;fill-opacity:1;fill-rule:evenodd;stroke:#000000;stroke-width:1px;stroke-linecap:butt;stroke-linejoin:miter;stroke-opacity:1"
       id="path2987-0-1-3"
       sodipodi:cx="196"
       sodipodi:cy="276.36218"
       sodipodi:rx="19"
       sodipodi:ry="19"
       d="m 215,276.36218 a 19,19 0 1 1 -38,0 19,19 0 1 1 38,0 z" />
    <path
       transform="matrix(-1.00771,0,0,1,547.51116,146)"
       sodipodi:type="arc"
       style="fill:#b1b1b1;fill-opacity:1;fill-rule:evenodd;stroke:#000000;stroke-width:1px;stroke-linecap:butt;stroke-linejoin:miter;stroke-opacity:1"
       id="path2987-0-1-3-175-0"
       sodipodi:cx="196"
       sodipodi:cy="276.36218"
       sodipodi:rx="19"
       sodipodi:ry="19"
       d="m 215,276.36218 a 19,19 0 1 1 -38,0 19,19 0 1 1 38,0 z" />
  </g>
</svg>
