<?xml version="1.0" encoding="UTF-8" standalone="no"?>
<!-- Created with Inkscape (http://www.inkscape.org/) -->

<svg
   xmlns:dc="http://purl.org/dc/elements/1.1/"
   xmlns:cc="http://creativecommons.org/ns#"
   xmlns:rdf="http://www.w3.org/1999/02/22-rdf-syntax-ns#"
   xmlns:svg="http://www.w3.org/2000/svg"
   xmlns="http://www.w3.org/2000/svg"
   xmlns:sodipodi="http://sodipodi.sourceforge.net/DTD/sodipodi-0.dtd"
   xmlns:inkscape="http://www.inkscape.org/namespaces/inkscape"
   width="744.09448819"
   height="1052.3622047"
   id="svg2"
   version="1.1"
   inkscape:version="0.92.3 (2405546, 2018-03-11)"
   sodipodi:docname="SwarmStableShape1.svg">
  <sodipodi:namedview
     id="base"
     pagecolor="#ffffff"
     bordercolor="#666666"
     borderopacity="1.0"
     inkscape:pageopacity="0.0"
     inkscape:pageshadow="2"
     inkscape:zoom="1"
     inkscape:cx="127.78908"
     inkscape:cy="655.08638"
     inkscape:document-units="px"
     inkscape:current-layer="layer1"
     showgrid="false"
     inkscape:window-width="1920"
     inkscape:window-height="992"
     inkscape:window-x="1920"
     inkscape:window-y="27"
     inkscape:window-maximized="1" />
  <defs
     id="defs4">
    <marker
       style="overflow:visible;"
       id="Arrow1Mend"
       refX="0.0"
       refY="0.0"
       orient="auto"
       inkscape:stockid="Arrow1Mend">
      <path
         transform="scale(0.4) rotate(180) translate(10,0)"
         style="fill-rule:evenodd;stroke:#000000;stroke-width:1.0pt;"
         d="M 0.0,0.0 L 5.0,-5.0 L -12.5,0.0 L 5.0,5.0 L 0.0,0.0 z "
         id="path4500" />
    </marker>
    <marker
       style="overflow:visible;"
       id="Arrow1Send"
       refX="0.0"
       refY="0.0"
       orient="auto"
       inkscape:stockid="Arrow1Send">
      <path
         transform="scale(0.2) rotate(180) translate(6,0)"
         style="fill-rule:evenodd;stroke:#000000;stroke-width:1.0pt;"
         d="M 0.0,0.0 L 5.0,-5.0 L -12.5,0.0 L 5.0,5.0 L 0.0,0.0 z "
         id="path3908" />
    </marker>
    <marker
       style="overflow:visible;"
       id="Arrow1Lend"
       refX="0.0"
       refY="0.0"
       orient="auto"
       inkscape:stockid="Arrow1Lend">
      <path
         transform="scale(0.8) rotate(180) translate(12.5,0)"
         style="fill-rule:evenodd;stroke:#000000;stroke-width:1.0pt;"
         d="M 0.0,0.0 L 5.0,-5.0 L -12.5,0.0 L 5.0,5.0 L 0.0,0.0 z "
         id="path3798" />
    </marker>
    <marker
       style="overflow:visible"
       id="Arrow1Lstart"
       refX="0.0"
       refY="0.0"
       orient="auto"
       inkscape:stockid="Arrow1Lstart">
      <path
         transform="scale(0.8) translate(12.5,0)"
         style="fill-rule:evenodd;stroke:#000000;stroke-width:1.0pt"
         d="M 0.0,0.0 L 5.0,-5.0 L -12.5,0.0 L 5.0,5.0 L 0.0,0.0 z "
         id="path3795" />
    </marker>
    <marker
       style="overflow:visible"
       id="Arrow1Lend-4"
       refX="0"
       refY="0"
       orient="auto"
       inkscape:stockid="Arrow1Lend">
      <path
         transform="matrix(-0.8,0,0,-0.8,-10,0)"
         style="fill-rule:evenodd;stroke:#000000;stroke-width:1pt"
         d="M 0,0 5,-5 -12.5,0 5,5 0,0 z"
         id="path3798-5"
         inkscape:connector-curvature="0" />
    </marker>
    <marker
       style="overflow:visible;"
       id="Arrow1MendP"
       refX="0.0"
       refY="0.0"
       orient="auto"
       inkscape:stockid="Arrow1MendP">
      <path
         transform="scale(0.4) rotate(180) translate(10,0)"
         style="stroke:#ff0000;stroke-width:1.0pt;fill:#ff0000;fill-rule:evenodd"
         d="M 0.0,0.0 L 5.0,-5.0 L -12.5,0.0 L 5.0,5.0 L 0.0,0.0 z "
         id="path4952" />
    </marker>
  </defs>
  <metadata
     id="metadata7">
    <rdf:RDF>
      <cc:Work
         rdf:about="">
        <dc:format>image/svg+xml</dc:format>
        <dc:type
           rdf:resource="http://purl.org/dc/dcmitype/StillImage" />
        <dc:title></dc:title>
      </cc:Work>
    </rdf:RDF>
  </metadata>
  <g
     id="layer1"
     inkscape:groupmode="layer"
     inkscape:label="Layer 1">
    <path
       style="fill:none;stroke:#000000;stroke-width:1px;stroke-linecap:butt;stroke-linejoin:miter;stroke-opacity:1"
       d="m 48,371.36218 74,69 6,-114 z"
       id="path3105"
       inkscape:connector-curvature="0" />
    <path
       style="fill:none;stroke:#000000;stroke-width:1px;stroke-linecap:butt;stroke-linejoin:miter;stroke-opacity:1"
       d="m 593,461.36218 c 5,-5 94,-66 94,-66 l -3,96 z"
       id="path3103"
       inkscape:connector-curvature="0" />
    <path
       style="fill:none;stroke:#000000;stroke-width:1px;stroke-linecap:butt;stroke-linejoin:miter;stroke-opacity:1"
       d="m 605,247.36218 80,58 -82,45 82,47 1,-88"
       id="path3101"
       inkscape:connector-curvature="0" />
    <path
       style="fill:none;stroke:#000000;stroke-width:1px;stroke-linecap:butt;stroke-linejoin:miter;stroke-opacity:1"
       d="m 526,309.36218 76,37 2,-100 -80,59 0,96 77,-51 -14,114 -63,-63"
       id="path3099"
       inkscape:connector-curvature="0" />
    <path
       style="fill:none;stroke:#000000;stroke-width:1px;stroke-linecap:butt;stroke-linejoin:miter;stroke-opacity:1"
       d="m 366,295.36218 87,-42"
       id="path3097"
       inkscape:connector-curvature="0" />
    <path
       style="fill:none;stroke:#000000;stroke-width:1px;stroke-linecap:butt;stroke-linejoin:miter;stroke-opacity:1"
       d="m 194,515.36218 4,-110 85,-48 -3,108 85,-52 77,47 82,-62 -86,-51 1,109"
       id="path3095"
       inkscape:connector-curvature="0" />
    <path
       style="fill:none;stroke:#000000;stroke-width:1px;stroke-linecap:butt;stroke-linejoin:miter;stroke-opacity:1"
       d="m 48,507.36218 -1,-138"
       id="path3093"
       inkscape:connector-curvature="0" />
    <path
       inkscape:connector-curvature="0"
       id="path3909"
       d="m 48,508.36218 71,-67 73,75"
       style="fill:none;stroke:#000000;stroke-width:1px;stroke-linecap:butt;stroke-linejoin:miter;stroke-opacity:1" />
    <path
       inkscape:connector-curvature="0"
       id="path4358"
       d="m 194,512.36218 84,-47"
       style="fill:none;stroke:#000000;stroke-width:1px;stroke-linecap:butt;stroke-linejoin:miter;stroke-opacity:1" />
    <path
       inkscape:connector-curvature="0"
       id="path4405"
       d="m 295,241.36218 -80,48 68,68"
       style="fill:none;stroke:#000000;stroke-width:1px;stroke-linecap:butt;stroke-linejoin:miter;stroke-opacity:1" />
    <path
       inkscape:connector-curvature="0"
       id="path4401"
       d="m 281,356.36218 87,-58 -74,-59 z"
       style="fill:none;stroke:#000000;stroke-width:1px;stroke-linecap:butt;stroke-linejoin:miter;stroke-opacity:1" />
    <path
       inkscape:connector-curvature="0"
       id="path4085"
       d="m 202,400.36218 -85,40"
       style="fill:none;stroke:#000000;stroke-width:1px;stroke-linecap:butt;stroke-linejoin:miter;stroke-opacity:1" />
    <path
       inkscape:connector-curvature="0"
       id="path4053"
       d="m 198,402.36218 81,60"
       style="fill:none;stroke:#000000;stroke-width:1px;stroke-linecap:butt;stroke-linejoin:miter;stroke-opacity:1" />
    <path
       inkscape:connector-curvature="0"
       id="path4407"
       d="m 198,405.36218 18,-117 -86,39 z"
       style="fill:none;stroke:#000000;stroke-width:1px;stroke-linecap:butt;stroke-linejoin:miter;stroke-opacity:1" />
    <path
       inkscape:connector-curvature="0"
       id="path4399"
       d="m 436,346.36218 -69,-48 -8,113"
       style="fill:none;stroke:#000000;stroke-width:1px;stroke-linecap:butt;stroke-linejoin:miter;stroke-opacity:1" />
    <path
       inkscape:connector-curvature="0"
       id="path4055"
       d="m 285,355.36218 77,56"
       style="fill:none;stroke:#000000;stroke-width:1px;stroke-linecap:butt;stroke-linejoin:miter;stroke-opacity:1" />
    <path
       inkscape:connector-curvature="0"
       id="path4057"
       d="m 440,350.36218 -78,63"
       style="fill:none;stroke:#000000;stroke-width:1px;stroke-linecap:butt;stroke-linejoin:miter;stroke-opacity:1" />
    <path
       inkscape:connector-curvature="0"
       id="path4397"
       d="m 525,305.36218 -89,43 16,-98 z"
       style="fill:none;stroke:#000000;stroke-width:1px;stroke-linecap:butt;stroke-linejoin:miter;stroke-opacity:1" />
    <path
       d="m 215,276.36218 a 19,19 0 1 1 -38,0 19,19 0 1 1 38,0 z"
       sodipodi:ry="19"
       sodipodi:rx="19"
       sodipodi:cy="276.36218"
       sodipodi:cx="196"
       id="path2987-0-8"
       style="fill:#b1b1b1;fill-opacity:1;fill-rule:evenodd;stroke:#000000;stroke-width:1px;stroke-linecap:butt;stroke-linejoin:miter;stroke-opacity:1"
       sodipodi:type="arc"
       transform="matrix(-1.00771,0,0,1,559.51116,137)" />
    <path
       d="m 215,276.36218 a 19,19 0 1 1 -38,0 19,19 0 1 1 38,0 z"
       sodipodi:ry="19"
       sodipodi:rx="19"
       sodipodi:cy="276.36218"
       sodipodi:cx="196"
       id="path2987-0-7"
       style="fill:#b1b1b1;fill-opacity:1;fill-rule:evenodd;stroke:#000000;stroke-width:1px;stroke-linecap:butt;stroke-linejoin:miter;stroke-opacity:1"
       sodipodi:type="arc"
       transform="matrix(-1.00771,0,0,1,719.51116,125)" />
    <path
       d="m 215,276.36218 a 19,19 0 1 1 -38,0 19,19 0 1 1 38,0 z"
       sodipodi:ry="19"
       sodipodi:rx="19"
       sodipodi:cy="276.36218"
       sodipodi:cx="196"
       id="path2987-0-90"
       style="fill:#b1b1b1;fill-opacity:1;fill-rule:evenodd;stroke:#000000;stroke-width:1px;stroke-linecap:butt;stroke-linejoin:miter;stroke-opacity:1"
       sodipodi:type="arc"
       transform="matrix(-1.00771,0,0,1,397.51116,127)" />
    <path
       d="m 215,276.36218 a 19,19 0 1 1 -38,0 19,19 0 1 1 38,0 z"
       sodipodi:ry="19"
       sodipodi:rx="19"
       sodipodi:cy="276.36218"
       sodipodi:cx="196"
       id="path2987-0-73"
       style="fill:#b1b1b1;fill-opacity:1;fill-rule:evenodd;stroke:#000000;stroke-width:1px;stroke-linecap:butt;stroke-linejoin:miter;stroke-opacity:1"
       sodipodi:type="arc"
       transform="matrix(-1.00771,0,0,1,479.51116,80)" />
    <path
       d="m 215,276.36218 a 19,19 0 1 1 -38,0 19,19 0 1 1 38,0 z"
       sodipodi:ry="19"
       sodipodi:rx="19"
       sodipodi:cy="276.36218"
       sodipodi:cx="196"
       id="path2987-0-1"
       style="fill:#b1b1b1;fill-opacity:1;fill-rule:evenodd;stroke:#000000;stroke-width:1px;stroke-linecap:butt;stroke-linejoin:miter;stroke-opacity:1"
       sodipodi:type="arc"
       transform="matrix(-1.00771,0,0,1,636.51116,72)" />
    <path
       d="m 215,276.36218 a 19,19 0 1 1 -38,0 19,19 0 1 1 38,0 z"
       sodipodi:ry="19"
       sodipodi:rx="19"
       sodipodi:cy="276.36218"
       sodipodi:cx="196"
       id="path2987-0-1-3-6"
       style="fill:#b1b1b1;fill-opacity:1;fill-rule:evenodd;stroke:#000000;stroke-width:1px;stroke-linecap:butt;stroke-linejoin:miter;stroke-opacity:1"
       sodipodi:type="arc"
       transform="matrix(-1.00771,0,0,1,799.51116,73)" />
    <path
       d="m 215,276.36218 a 19,19 0 1 1 -38,0 19,19 0 1 1 38,0 z"
       sodipodi:ry="19"
       sodipodi:rx="19"
       sodipodi:cy="276.36218"
       sodipodi:cx="196"
       id="path2987-0-1-3-63"
       style="fill:#b1b1b1;fill-opacity:1;fill-rule:evenodd;stroke:#000000;stroke-width:1px;stroke-linecap:butt;stroke-linejoin:miter;stroke-opacity:1"
       sodipodi:type="arc"
       transform="matrix(-1.00771,0,0,1,800.51116,-28)" />
    <path
       d="m 215,276.36218 a 19,19 0 1 1 -38,0 19,19 0 1 1 38,0 z"
       sodipodi:ry="19"
       sodipodi:rx="19"
       sodipodi:cy="276.36218"
       sodipodi:cx="196"
       id="path2987-0-1-3-61"
       style="fill:#b1b1b1;fill-opacity:1;fill-rule:evenodd;stroke:#000000;stroke-width:1px;stroke-linecap:butt;stroke-linejoin:miter;stroke-opacity:1"
       sodipodi:type="arc"
       transform="matrix(-1.00771,0,0,1,881.51116,30)" />
    <path
       d="m 215,276.36218 a 19,19 0 1 1 -38,0 19,19 0 1 1 38,0 z"
       sodipodi:ry="19"
       sodipodi:rx="19"
       sodipodi:cy="276.36218"
       sodipodi:cx="196"
       id="path2987-0-1-3-58"
       style="fill:#b1b1b1;fill-opacity:1;fill-rule:evenodd;stroke:#000000;stroke-width:1px;stroke-linecap:butt;stroke-linejoin:miter;stroke-opacity:1"
       sodipodi:type="arc"
       transform="matrix(-1.00771,0,0,1,882.51116,119)" />
    <path
       d="m 215,276.36218 a 19,19 0 1 1 -38,0 19,19 0 1 1 38,0 z"
       sodipodi:ry="19"
       sodipodi:rx="19"
       sodipodi:cy="276.36218"
       sodipodi:cx="196"
       id="path2987-0-1-3-171"
       style="fill:#b1b1b1;fill-opacity:1;fill-rule:evenodd;stroke:#000000;stroke-width:1px;stroke-linecap:butt;stroke-linejoin:miter;stroke-opacity:1"
       sodipodi:type="arc"
       transform="matrix(-1.00771,0,0,1,245.51116,95)" />
    <path
       d="m 215,276.36218 a 19,19 0 1 1 -38,0 19,19 0 1 1 38,0 z"
       sodipodi:ry="19"
       sodipodi:rx="19"
       sodipodi:cy="276.36218"
       sodipodi:cx="196"
       id="path2987-0-1-3-04"
       style="fill:#b1b1b1;fill-opacity:1;fill-rule:evenodd;stroke:#000000;stroke-width:1px;stroke-linecap:butt;stroke-linejoin:miter;stroke-opacity:1"
       sodipodi:type="arc"
       transform="matrix(-1.00771,0,0,1,325.51116,51)" />
    <path
       inkscape:transform-center-y="26"
       inkscape:transform-center-x="62"
       d="m 215,276.36218 a 19,19 0 1 1 -38,0 19,19 0 1 1 38,0 z"
       sodipodi:ry="19"
       sodipodi:rx="19"
       sodipodi:cy="276.36218"
       sodipodi:cx="196"
       id="path2987-0-1-3-807"
       style="fill:#b1b1b1;fill-opacity:1;fill-rule:evenodd;stroke:#000000;stroke-width:1px;stroke-linecap:butt;stroke-linejoin:miter;stroke-opacity:1"
       sodipodi:type="arc"
       transform="matrix(-1.00771,0,0,1,412.51116,11)" />
    <path
       d="m 215,276.36218 a 19,19 0 1 1 -38,0 19,19 0 1 1 38,0 z"
       sodipodi:ry="19"
       sodipodi:rx="19"
       sodipodi:cy="276.36218"
       sodipodi:cx="196"
       id="path2987-0-1-3-175"
       style="fill:#b1b1b1;fill-opacity:1;fill-rule:evenodd;stroke:#000000;stroke-width:1px;stroke-linecap:butt;stroke-linejoin:miter;stroke-opacity:1"
       sodipodi:type="arc"
       transform="matrix(-1.00771,0,0,1,492.51116,-35)" />
    <path
       d="m 215,276.36218 a 19,19 0 1 1 -38,0 19,19 0 1 1 38,0 z"
       sodipodi:ry="19"
       sodipodi:rx="19"
       sodipodi:cy="276.36218"
       sodipodi:cx="196"
       id="path2987-0-1-3-7"
       style="fill:#b1b1b1;fill-opacity:1;fill-rule:evenodd;stroke:#000000;stroke-width:1px;stroke-linecap:butt;stroke-linejoin:miter;stroke-opacity:1"
       sodipodi:type="arc"
       transform="matrix(-1.00771,0,0,1,719.51116,30)" />
    <path
       d="m 215,276.36218 a 19,19 0 1 1 -38,0 19,19 0 1 1 38,0 z"
       sodipodi:ry="19"
       sodipodi:rx="19"
       sodipodi:cy="276.36218"
       sodipodi:cx="196"
       id="path2987-0-1-3-5"
       style="fill:#b1b1b1;fill-opacity:1;fill-rule:evenodd;stroke:#000000;stroke-width:1px;stroke-linecap:butt;stroke-linejoin:miter;stroke-opacity:1"
       sodipodi:type="arc"
       transform="matrix(-1.00771,0,0,1,649.51116,-23)" />
    <path
       d="m 215,276.36218 a 19,19 0 1 1 -38,0 19,19 0 1 1 38,0 z"
       sodipodi:ry="19"
       sodipodi:rx="19"
       sodipodi:cy="276.36218"
       sodipodi:cx="196"
       id="path2987-0-1-3"
       style="fill:#b1b1b1;fill-opacity:1;fill-rule:evenodd;stroke:#000000;stroke-width:1px;stroke-linecap:butt;stroke-linejoin:miter;stroke-opacity:1"
       sodipodi:type="arc"
       transform="matrix(-1.00771,0,0,1,563.51116,21)" />
    <text
       xml:space="preserve"
       style="font-style:normal;font-weight:normal;line-height:0%;font-family:sans-serif;text-align:center;letter-spacing:0px;word-spacing:0px;text-anchor:middle;fill:#000000;fill-opacity:1;stroke:none"
       x="101.43311"
       y="195.36218"
       id="text3107"><tspan
         sodipodi:role="line"
         id="tspan3109"
         x="104.29835"
         y="195.36218"
         style="font-size:18px;line-height:1.25;font-family:sans-serif;text-align:center;text-anchor:middle">Straight </tspan><tspan
         sodipodi:role="line"
         x="101.43311"
         y="217.86218"
         style="font-size:18px;line-height:1.25;font-family:sans-serif;text-align:center;text-anchor:middle"
         id="tspan4230">edges</tspan></text>
    <path
       style="fill:none;stroke:#000000;stroke-width:1.30132306;stroke-linecap:butt;stroke-linejoin:miter;stroke-opacity:1;stroke-miterlimit:4;stroke-dasharray:1.30132306,2.60264611;stroke-dashoffset:0"
       d="m 101.12891,227.45364 66.74218,82.81708"
       id="path3111"
       inkscape:connector-curvature="0" />
    <text
       xml:space="preserve"
       style="font-style:normal;font-weight:normal;line-height:0%;font-family:sans-serif;text-align:center;letter-spacing:0px;word-spacing:0px;text-anchor:middle;fill:#000000;fill-opacity:1;stroke:none"
       x="383.73438"
       y="157.328"
       id="text3107-2"><tspan
         sodipodi:role="line"
         id="tspan3109-0"
         x="383.73438"
         y="157.328"
         style="font-size:18px;line-height:1.25;font-family:sans-serif;text-align:center;text-anchor:middle">Concave</tspan><tspan
         sodipodi:role="line"
         x="383.73438"
         y="179.828"
         style="font-size:18px;line-height:1.25;font-family:sans-serif;text-align:center;text-anchor:middle"
         id="tspan4228">edges</tspan></text>
    <text
       xml:space="preserve"
       style="font-style:normal;font-weight:normal;line-height:0%;font-family:sans-serif;text-align:center;letter-spacing:0px;word-spacing:0px;text-anchor:middle;fill:#000000;fill-opacity:1;stroke:none"
       x="599.97363"
       y="155.9198"
       id="text3107-2-3"><tspan
         sodipodi:role="line"
         id="tspan3109-0-6"
         x="599.97363"
         y="155.9198"
         style="font-size:18px;line-height:1.25;font-family:sans-serif;text-align:center;text-anchor:middle">Convex</tspan><tspan
         sodipodi:role="line"
         x="599.97363"
         y="178.4198"
         style="font-size:18px;line-height:1.25;font-family:sans-serif;text-align:center;text-anchor:middle"
         id="tspan4228-7">edge</tspan></text>
    <path
       style="fill:none;fill-rule:evenodd;stroke:#000000;stroke-width:1;stroke-linecap:butt;stroke-linejoin:miter;stroke-opacity:1;stroke-miterlimit:4;stroke-dasharray:1,2;stroke-dashoffset:0"
       d="m 329,265.36218 48,-80"
       id="path4257"
       inkscape:connector-curvature="0" />
    <path
       style="fill:none;fill-rule:evenodd;stroke:#000000;stroke-width:1;stroke-linecap:butt;stroke-linejoin:miter;stroke-opacity:1;stroke-miterlimit:4;stroke-dasharray:1,2;stroke-dashoffset:0"
       d="m 411,272.36218 -35,-88"
       id="path4259"
       inkscape:connector-curvature="0" />
    <path
       style="fill:none;fill-rule:evenodd;stroke:#000000;stroke-width:1;stroke-linecap:butt;stroke-linejoin:miter;stroke-opacity:1;stroke-miterlimit:4;stroke-dasharray:1,2;stroke-dashoffset:0"
       d="m 102,228.36218 -14,120"
       id="path4261"
       inkscape:connector-curvature="0" />
    <path
       style="fill:none;stroke:#000000;stroke-width:1px;stroke-linecap:butt;stroke-linejoin:miter;stroke-opacity:1"
       d="m 48,508.36218 -2,124 76,-59 -3,-132"
       id="path1000"
       inkscape:connector-curvature="0" />
    <path
       d="m 215,276.36218 a 19,19 0 1 1 -38,0 19,19 0 1 1 38,0 z"
       sodipodi:ry="19"
       sodipodi:rx="19"
       sodipodi:cy="276.36218"
       sodipodi:cx="196"
       id="path2987-0-58"
       style="fill:#b1b1b1;fill-opacity:1;fill-rule:evenodd;stroke:#000000;stroke-width:1px;stroke-linecap:butt;stroke-linejoin:miter;stroke-opacity:1"
       sodipodi:type="arc"
       transform="matrix(-1.00771,0,0,1,317.51116,165)" />
    <path
       style="fill:none;stroke:#000000;stroke-width:1px;stroke-linecap:butt;stroke-linejoin:miter;stroke-opacity:1"
       d="m 48,508.36218 74,65 72,-58 63,82 -56,76 93,94 36,-96 -72,-76 -136,-22"
       id="path1002"
       inkscape:connector-curvature="0" />
    <path
       d="m 215,276.36218 a 19,19 0 1 1 -38,0 19,19 0 1 1 38,0 z"
       sodipodi:ry="19"
       sodipodi:rx="19"
       sodipodi:cy="276.36218"
       sodipodi:cx="196"
       id="path2987-4-9-1"
       style="fill:#b1b1b1;fill-opacity:1;fill-rule:evenodd;stroke:#000000;stroke-width:1px;stroke-linecap:butt;stroke-linejoin:miter;stroke-opacity:1"
       sodipodi:type="arc"
       transform="translate(-4,238)" />
    <path
       d="m 215,276.36218 a 19,19 0 1 1 -38,0 19,19 0 1 1 38,0 z"
       sodipodi:ry="19"
       sodipodi:rx="19"
       sodipodi:cy="276.36218"
       sodipodi:cx="196"
       id="path2987-0-3"
       style="fill:#b1b1b1;fill-opacity:1;fill-rule:evenodd;stroke:#000000;stroke-width:1px;stroke-linecap:butt;stroke-linejoin:miter;stroke-opacity:1"
       sodipodi:type="arc"
       transform="matrix(-1.00771,0,0,1,245.51116,231)" />
    <circle
       r="19"
       cy="632.36218"
       cx="45"
       id="path2987-4-9-1-60"
       style="fill:#b1b1b1;fill-opacity:1;fill-rule:evenodd;stroke:#000000;stroke-width:1px;stroke-linecap:butt;stroke-linejoin:miter;stroke-opacity:1" />
    <path
       style="fill:none;stroke:#000000;stroke-width:1px;stroke-linecap:butt;stroke-linejoin:miter;stroke-opacity:1"
       d="m 280,465.36218 -22,130"
       id="path1004"
       inkscape:connector-curvature="0" />
    <path
       d="m 215,276.36218 a 19,19 0 1 1 -38,0 19,19 0 1 1 38,0 z"
       sodipodi:ry="19"
       sodipodi:rx="19"
       sodipodi:cy="276.36218"
       sodipodi:cx="196"
       id="path2987-4-9-2"
       style="fill:#b1b1b1;fill-opacity:1;fill-rule:evenodd;stroke:#000000;stroke-width:1px;stroke-linecap:butt;stroke-linejoin:miter;stroke-opacity:1"
       sodipodi:type="arc"
       transform="translate(83,191)" />
    <circle
       r="19"
       cy="594.36218"
       cx="258"
       id="path2987-4-9-1-3"
       style="fill:#b1b1b1;fill-opacity:1;fill-rule:evenodd;stroke:#000000;stroke-width:1px;stroke-linecap:butt;stroke-linejoin:miter;stroke-opacity:1" />
    <path
       style="fill:none;stroke:#000000;stroke-width:1px;stroke-linecap:butt;stroke-linejoin:miter;stroke-opacity:1"
       d="m 684,491.36218 -76,85 -21,-112"
       id="path1008"
       inkscape:connector-curvature="0" />
    <path
       d="m 215,276.36218 a 19,19 0 1 1 -38,0 19,19 0 1 1 38,0 z"
       sodipodi:ry="19"
       sodipodi:rx="19"
       sodipodi:cy="276.36218"
       sodipodi:cx="196"
       id="path2987-0-1-3-1"
       style="fill:#b1b1b1;fill-opacity:1;fill-rule:evenodd;stroke:#000000;stroke-width:1px;stroke-linecap:butt;stroke-linejoin:miter;stroke-opacity:1"
       sodipodi:type="arc"
       transform="matrix(-1.00771,0,0,1,880.51116,214)" />
    <path
       style="fill:none;stroke:#000000;stroke-width:1px;stroke-linecap:butt;stroke-linejoin:miter;stroke-opacity:1"
       d="m 122,573.36218 79,100"
       id="path1010"
       inkscape:connector-curvature="0" />
    <circle
       r="19"
       cy="575.36218"
       cx="123"
       id="path2987-4-9-1-7"
       style="fill:#b1b1b1;fill-opacity:1;fill-rule:evenodd;stroke:#000000;stroke-width:1px;stroke-linecap:butt;stroke-linejoin:miter;stroke-opacity:1" />
    <path
       style="fill:none;stroke:#000000;stroke-width:1px;stroke-linecap:butt;stroke-linejoin:miter;stroke-opacity:1"
       d="m 294,767.36218 112,-16 -76,-80 106,-27 -26,109 90,-14 44,-88 -108,-7 66,-92 -60,-92 145,4 -84,92 105,20 -67,76"
       id="path1006"
       inkscape:connector-curvature="0" />
    <circle
       r="19"
       cy="575.36218"
       cx="608"
       id="path2987-4-9-1-70"
       style="fill:#b1b1b1;fill-opacity:1;fill-rule:evenodd;stroke:#000000;stroke-width:1px;stroke-linecap:butt;stroke-linejoin:miter;stroke-opacity:1" />
    <path
       d="m 215,276.36218 a 19,19 0 1 1 -38,0 19,19 0 1 1 38,0 z"
       sodipodi:ry="19"
       sodipodi:rx="19"
       sodipodi:cy="276.36218"
       sodipodi:cx="196"
       id="path2987-4-9-17"
       style="fill:#b1b1b1;fill-opacity:1;fill-rule:evenodd;stroke:#000000;stroke-width:1px;stroke-linecap:butt;stroke-linejoin:miter;stroke-opacity:1"
       sodipodi:type="arc"
       transform="translate(244,188)" />
    <path
       d="m 215,276.36218 a 19,19 0 1 1 -38,0 19,19 0 1 1 38,0 z"
       sodipodi:ry="19"
       sodipodi:rx="19"
       sodipodi:cy="276.36218"
       sodipodi:cx="196"
       id="path2987-0-4"
       style="fill:#b1b1b1;fill-opacity:1;fill-rule:evenodd;stroke:#000000;stroke-width:1px;stroke-linecap:butt;stroke-linejoin:miter;stroke-opacity:1"
       sodipodi:type="arc"
       transform="matrix(-1.00771,0,0,1,783.51116,188)" />
    <circle
       r="19"
       cy="554.36218"
       cx="503"
       id="path2987-4-9-1-62"
       style="fill:#b1b1b1;fill-opacity:1;fill-rule:evenodd;stroke:#000000;stroke-width:1px;stroke-linecap:butt;stroke-linejoin:miter;stroke-opacity:1" />
    <circle
       r="19"
       cy="654.36218"
       cx="538"
       id="path2987-4-9-1-2"
       style="fill:#b1b1b1;fill-opacity:1;fill-rule:evenodd;stroke:#000000;stroke-width:1px;stroke-linecap:butt;stroke-linejoin:miter;stroke-opacity:1" />
    <circle
       r="19"
       cy="740.36218"
       cx="499"
       id="path2987-4-9-1-93"
       style="fill:#b1b1b1;fill-opacity:1;fill-rule:evenodd;stroke:#000000;stroke-width:1px;stroke-linecap:butt;stroke-linejoin:miter;stroke-opacity:1" />
    <circle
       r="19"
       cy="646.36218"
       cx="437"
       id="path2987-4-9-1-35"
       style="fill:#b1b1b1;fill-opacity:1;fill-rule:evenodd;stroke:#000000;stroke-width:1px;stroke-linecap:butt;stroke-linejoin:miter;stroke-opacity:1" />
    <circle
       r="19"
       cy="752.36218"
       cx="407"
       id="path2987-4-9-1-9"
       style="fill:#b1b1b1;fill-opacity:1;fill-rule:evenodd;stroke:#000000;stroke-width:1px;stroke-linecap:butt;stroke-linejoin:miter;stroke-opacity:1" />
    <circle
       r="19"
       cy="763.36218"
       cx="292"
       id="path2987-4-9-1-1"
       style="fill:#b1b1b1;fill-opacity:1;fill-rule:evenodd;stroke:#000000;stroke-width:1px;stroke-linecap:butt;stroke-linejoin:miter;stroke-opacity:1" />
    <path
       style="fill:none;fill-rule:evenodd;stroke:#000000;stroke-width:1;stroke-linecap:butt;stroke-linejoin:miter;stroke-miterlimit:4;stroke-dasharray:1, 2;stroke-dashoffset:0;stroke-opacity:1"
       d="m 640.5,272.36218 -35,-88"
       id="path4259-6"
       inkscape:connector-curvature="0" />
    <text
       xml:space="preserve"
       style="font-style:normal;font-weight:normal;font-size:40px;line-height:1.25;font-family:sans-serif;letter-spacing:0px;word-spacing:0px;fill:#000000;fill-opacity:1;stroke:none"
       x="328"
       y="558.36218"
       id="text1044"><tspan
         sodipodi:role="line"
         id="tspan1042"
         x="328"
         y="558.36218"
         style="font-size:32px">VOID</tspan></text>
    <path
       style="fill:none;stroke:#000000;stroke-width:1px;stroke-linecap:butt;stroke-linejoin:miter;stroke-opacity:1"
       d="m 201,673.36218 129,-2"
       id="path1046"
       inkscape:connector-curvature="0" />
    <circle
       r="19"
       cy="669.36218"
       cx="328"
       id="path2987-4-9-1-6"
       style="fill:#b1b1b1;fill-opacity:1;fill-rule:evenodd;stroke:#000000;stroke-width:1px;stroke-linecap:butt;stroke-linejoin:miter;stroke-opacity:1"
       inkscape:export-xdpi="96"
       inkscape:export-ydpi="96" />
    <circle
       r="19"
       cy="672.36218"
       cx="202"
       id="path2987-4-9-1-5"
       style="fill:#b1b1b1;fill-opacity:1;fill-rule:evenodd;stroke:#000000;stroke-width:1px;stroke-linecap:butt;stroke-linejoin:miter;stroke-opacity:1" />
  </g>
</svg>
